# xmcd
#
# Track frame offsets: 
#        150
#        19078
#        38943
#        58119
#        79289
#        94889
#        119226
#        139385
#        154713
#        169202
#        188191
#        210989
#        231804
#
# Disc length: 3541 seconds
#
# Revision: 0
# Processed by: cddbd v1.5.2PL0 Copyright (c) Steve Scherf et al.
# Submitted via: ExactAudioCopy v0.99pb4
#
DISCID=b90dd30d
DTITLE=Levon Helm - The Midnight Ramble Sessions Vol.1
DYEAR=2005
DGENRE=Blues
TTITLE0=Sad Hours
TTITLE1=Oh Baby
TTITLE2=I'm Ready
TTITLE3=Blow,Wind,Blow
TTITLE4=Blues With A Feeling
TTITLE5=The New Scratch My Back
TTITLE6=I Ain't Lyin'
TTITLE7=I'm Crazy About You Baby
TTITLE8=Boom Boom,Out Go The Lights
TTITLE9=Forty Days And Forty Nights
TTITLE10=I Want To Take You Downtown
TTITLE11=Everything Gonna Be Alright/Wrapped Up In Love Again
TTITLE12=California Blues
EXTD=
EXTT0=
EXTT1=
EXTT2=
EXTT3=
EXTT4=
EXTT5=
EXTT6=
EXTT7=
EXTT8=
EXTT9=
EXTT10=
EXTT11=
EXTT12=
PLAYORDER=
